<?xml version="1.0" encoding="UTF-8"?>
<svg id="Capa_1" data-name="Capa 1" xmlns="http://www.w3.org/2000/svg" viewBox="0 0 2000 2000">
  <defs>
    <style>
      .cls-1 {
        fill: #0b5da8;
        stroke-width: 0px;
      }
    </style>
  </defs>
  <path class="cls-1" d="M491.5,411.19v529.33h-142.15V411.19h142.15Z"/>
  <path class="cls-1" d="M985.48,927.16c-20.42,9.42-69.9,21.2-133.51,21.2-197.91,0-285.08-123.3-285.08-263.88,0-186.91,136.65-281.94,294.51-281.94,61.26,0,110.73,11.78,132.73,23.56l-27.49,111.52c-23.56-9.42-55.76-18.85-98.17-18.85-81.68,0-152.36,47.91-152.36,156.29,0,96.6,57.33,156.29,154.71,156.29,34.56,0,73.04-7.07,95.03-15.71l19.63,111.52Z"/>
  <path class="cls-1" d="M1432.34,927.16c-20.42,9.42-69.9,21.2-133.51,21.2-197.91,0-285.08-123.3-285.08-263.88,0-186.91,136.65-281.94,294.51-281.94,61.26,0,110.74,11.78,132.72,23.56l-27.49,111.52c-23.56-9.42-55.76-18.85-98.17-18.85-81.68,0-152.36,47.91-152.36,156.29,0,96.6,57.33,156.29,154.71,156.29,34.56,0,73.04-7.07,95.03-15.71l19.63,111.52Z"/>
  <path class="cls-1" d="M1650.66,411.19v529.33h-142.15V411.19h142.15Z"/>
  <path class="cls-1" d="M350.39,1046.55v135.87h-36.49v-135.87h36.49Z"/>
  <path class="cls-1" d="M374.18,1116.91c0-13.1-.4-24.59-.81-33.67h31.25l1.61,12.7h.81c3.63-5.24,13.1-14.92,29.63-14.92,23.18,0,35.68,15.72,35.68,42.94v58.46h-36.29v-54.02c0-11.49-4.03-18.14-12.7-18.14-7.06,0-10.28,4.84-11.89,8.67-.81,1.81-1.01,4.64-1.01,7.26v56.24h-36.29v-65.51Z"/>
  <path class="cls-1" d="M593.51,1083.24c-.6,6.05-1.01,14.72-1.01,30.64v54.02c0,17.54-3.43,33.87-15.32,44.35-11.49,9.68-26.61,12.3-41.93,12.3-13.71,0-27.62-2.62-36.89-7.46l6.85-27.42c6.05,3.43,17.34,7.26,28.62,7.26,12.9,0,22.98-7.05,22.98-22.38v-4.44h-.4c-6.05,7.66-14.92,11.09-24.79,11.09-24.19,0-41.73-19.35-41.73-48.18,0-31.25,20.16-52.01,44.95-52.01,12.1,0,20.36,4.64,25.6,12.7h.4l1.21-10.48h31.45ZM556.21,1124.16c0-1.41-.2-3.23-.4-4.64-1.61-7.05-6.25-11.29-12.9-11.29-8.67,0-16.13,8.47-16.13,24.19,0,12.9,6.05,22.38,16.13,22.38,6.65,0,11.49-4.43,12.7-9.88.6-2.02.6-5.24.6-7.46v-13.3Z"/>
  <path class="cls-1" d="M644.51,1145.53c1.21,7.86,12.7,12.3,25.4,12.3,9.47,0,18.34-1.01,27.21-3.83l4.64,24.19c-11.89,4.84-24.79,6.25-37.09,6.25-34.87,0-54.63-19.15-54.63-50.6,0-23.18,14.92-52.81,51.4-52.81,32.05,0,45.76,23.58,45.76,50.8,0,6.05-.81,11.29-1.41,13.71h-61.28ZM673.74,1120.94c0-5.64-2.62-16.13-14.11-16.13-10.68,0-14.92,9.88-15.52,16.13h29.63Z"/>
  <path class="cls-1" d="M723.73,1116.91c0-13.1-.4-24.59-.81-33.67h31.25l1.61,12.7h.81c3.63-5.24,13.1-14.92,29.63-14.92,23.18,0,35.68,15.72,35.68,42.94v58.46h-36.29v-54.02c0-11.49-4.03-18.14-12.7-18.14-7.06,0-10.28,4.84-11.89,8.67-.81,1.81-1.01,4.64-1.01,7.26v56.24h-36.29v-65.51Z"/>
  <path class="cls-1" d="M881.17,1055.83c0,9.68-7.26,17.34-18.75,17.34s-18.34-7.66-18.34-17.34,7.26-17.13,18.55-17.13,18.34,7.26,18.55,17.13ZM844.48,1182.42v-99.18h36.29v99.18h-36.29Z"/>
  <path class="cls-1" d="M932.77,1145.53c1.21,7.86,12.7,12.3,25.4,12.3,9.47,0,18.34-1.01,27.21-3.83l4.64,24.19c-11.89,4.84-24.79,6.25-37.09,6.25-34.87,0-54.63-19.15-54.63-50.6,0-23.18,14.92-52.81,51.4-52.81,32.05,0,45.76,23.58,45.76,50.8,0,6.05-.81,11.29-1.41,13.71h-61.28ZM962,1120.94c0-5.64-2.62-16.13-14.11-16.13-10.68,0-14.92,9.88-15.52,16.13h29.63Z"/>
  <path class="cls-1" d="M1011.99,1116.7c0-15.72-.4-25.2-.81-33.46h31.04l1.21,17.94h.81c5.24-15.12,17.94-20.16,26.41-20.16,3.23,0,4.64,0,7.26.6v34.07c-2.62-.6-5.44-1.01-9.27-1.01-10.68,0-17.94,4.44-19.75,12.5-.4,1.81-.6,3.83-.6,6.25v48.99h-36.29v-65.72Z"/>
  <path class="cls-1" d="M1092.43,1182.42v-99.18h36.29v99.18h-36.29ZM1145.64,1040.1l-24.59,31.45h-24.79l17.34-31.45h32.05Z"/>
  <path class="cls-1" d="M1208.34,1182.42l-2.02-8.67h-.6c-7.06,7.86-16.93,10.89-27.62,10.89-20.16,0-32.66-14.72-32.66-31.25,0-26.61,23.79-38.3,57.45-38.5v-.81c0-4.03-3.02-8.47-16.13-8.47-10.48,0-21.57,3.63-28.02,7.46l-6.45-23.18c6.45-3.22,20.56-8.87,41.12-8.87,34.07,0,45.96,18.95,45.96,43.74v33.46c0,9.88.4,19.15,1.61,24.19h-32.66ZM1204.1,1137.06c-14.72,0-23.18,4.23-23.18,12.9,0,6.25,4.23,9.47,10.28,9.47,5.24,0,10.89-3.63,12.5-9.07.4-1.61.4-3.43.4-5.24v-8.06Z"/>
  <path class="cls-1" d="M1404.68,1178.99c-5.24,2.42-17.94,5.44-34.27,5.44-50.8,0-73.17-31.65-73.17-67.73,0-47.98,35.08-72.37,75.59-72.37,15.72,0,28.42,3.02,34.07,6.05l-7.06,28.62c-6.05-2.42-14.31-4.84-25.2-4.84-20.96,0-39.11,12.3-39.11,40.12,0,24.79,14.72,40.12,39.71,40.12,8.87,0,18.75-1.81,24.39-4.03l5.04,28.62Z"/>
  <path class="cls-1" d="M1458.91,1055.83c0,9.68-7.26,17.34-18.75,17.34s-18.34-7.66-18.34-17.34,7.26-17.13,18.55-17.13,18.34,7.26,18.54,17.13ZM1422.22,1182.42v-99.18h36.29v99.18h-36.29Z"/>
  <path class="cls-1" d="M1510.91,1083.24l10.68,42.13c2.02,7.86,3.43,15.52,4.64,23.38h.6c1.21-8.06,2.42-15.12,4.44-23.38l9.88-42.13h38.1l-36.08,99.18h-36.49l-35.28-99.18h39.51Z"/>
  <path class="cls-1" d="M1628.84,1055.83c0,9.68-7.26,17.34-18.75,17.34s-18.34-7.66-18.34-17.34,7.26-17.13,18.55-17.13,18.34,7.26,18.54,17.13ZM1592.15,1182.42v-99.18h36.29v99.18h-36.29Z"/>
  <path class="cls-1" d="M1651.01,1039.29h36.29v143.12h-36.29v-143.12Z"/>
  <path class="cls-1" d="M290.12,1387.43c1.21,7.86,12.7,12.3,25.4,12.3,9.47,0,18.34-1.01,27.21-3.83l4.64,24.19c-11.89,4.84-24.79,6.25-37.09,6.25-34.87,0-54.63-19.15-54.63-50.6,0-23.18,14.92-52.81,51.4-52.81,32.05,0,45.76,23.58,45.76,50.8,0,6.05-.81,11.29-1.41,13.71h-61.28ZM319.35,1362.84c0-5.64-2.62-16.13-14.11-16.13-10.68,0-14.92,9.88-15.52,16.13h29.63Z"/>
  <path class="cls-1" d="M369.34,1358.81c0-13.1-.4-24.59-.81-33.67h31.25l1.61,12.7h.81c3.63-5.24,13.1-14.92,29.63-14.92,23.18,0,35.68,15.72,35.68,42.94v58.46h-36.29v-54.02c0-11.49-4.03-18.14-12.7-18.14-7.06,0-10.28,4.84-11.89,8.67-.81,1.81-1.01,4.64-1.01,7.26v56.24h-36.29v-65.51Z"/>
  <path class="cls-1" d="M633.01,1420.9c-5.24,2.42-17.94,5.44-34.27,5.44-50.8,0-73.17-31.65-73.17-67.73,0-47.98,35.08-72.37,75.59-72.37,15.72,0,28.42,3.02,34.07,6.05l-7.06,28.62c-6.05-2.42-14.31-4.84-25.2-4.84-20.96,0-39.11,12.3-39.11,40.12,0,24.79,14.72,40.12,39.71,40.12,8.87,0,18.75-1.81,24.39-4.03l5.04,28.62Z"/>
  <path class="cls-1" d="M748.12,1373.73c0,36.08-25.8,52.82-53.62,52.82-29.63,0-52.61-18.95-52.61-51.2s20.76-52.41,54.63-52.41c31.04,0,51.61,20.96,51.61,50.8ZM679.38,1374.73c0,14.72,4.84,26.21,16.13,26.21,9.68,0,15.12-10.28,15.12-26.21,0-13.71-4.44-26.21-15.32-26.21-11.89,0-15.93,13.1-15.93,26.21Z"/>
  <path class="cls-1" d="M765.66,1358.81c0-13.1-.4-24.59-.81-33.67h30.44l1.41,12.3h.81c3.63-4.84,12.3-14.51,29.23-14.51,12.7,0,22.58,5.85,26.81,15.72h.4c4.03-5.04,8.47-9.07,13.71-11.69,5.04-2.62,10.89-4.03,17.54-4.03,21.37,0,33.66,15.52,33.66,42.94v58.46h-35.28v-53.02c0-12.3-3.63-19.35-11.69-19.35-5.85,0-9.47,3.83-11.09,8.47-.81,2.02-1.01,5.24-1.01,7.26v56.65h-35.28v-54.02c0-11.09-3.43-18.34-11.49-18.34-6.65,0-9.68,4.84-11.09,8.26-1.01,2.22-1.01,4.84-1.01,7.26v56.85h-35.28v-65.51Z"/>
  <path class="cls-1" d="M941.24,1358.81c0-13.1-.4-24.39-.81-33.67h31.25l1.61,12.5h.4c7.46-9.68,18.55-14.72,32.05-14.72,20.76,0,40.92,18.34,40.92,50.6,0,36.29-23.58,53.02-45.15,53.02-11.29,0-19.96-4.44-23.59-9.47h-.4v47.17h-36.29v-105.43ZM977.52,1380.98c0,2.22.2,4.23.6,6.05,1.41,6.45,6.85,11.89,14.11,11.89,10.89,0,17.54-9.47,17.54-23.79s-5.64-23.99-17.13-23.99c-7.26,0-13.51,5.85-14.72,12.9-.4,1.41-.4,3.02-.4,4.64v12.3Z"/>
  <path class="cls-1" d="M1161.97,1390.46c0,14.11.4,25.4.81,33.87h-31.25l-1.61-13.1h-.81c-3.63,5.44-12.3,15.32-30.04,15.32-22.17,0-35.08-14.31-35.08-42.94v-58.46h36.29v52.61c0,12.7,4.23,19.55,12.7,19.55,6.85,0,10.28-4.64,11.69-8.47.81-1.41,1.01-3.23,1.01-5.24v-58.46h36.29v65.31Z"/>
  <path class="cls-1" d="M1224.46,1296.92v28.22h20.56v26.61h-20.56v28.42c0,11.89,2.82,16.73,11.49,16.73,3.83,0,6.65-.4,8.67-.81v27.62c-4.23,1.41-12.3,2.62-21.57,2.62-10.68,0-19.55-3.63-24.79-8.87-6.05-6.05-9.27-15.93-9.27-31.04v-34.67h-12.3v-26.61h12.3v-20.16l35.48-8.06Z"/>
  <path class="cls-1" d="M1319.01,1424.32l-2.02-8.67h-.6c-7.06,7.86-16.93,10.89-27.62,10.89-20.16,0-32.66-14.72-32.66-31.25,0-26.61,23.79-38.3,57.45-38.5v-.81c0-4.03-3.02-8.47-16.13-8.47-10.48,0-21.57,3.63-28.02,7.46l-6.45-23.18c6.45-3.22,20.56-8.87,41.12-8.87,34.07,0,45.96,18.95,45.96,43.74v33.46c0,9.88.4,19.15,1.61,24.19h-32.66ZM1314.77,1378.97c-14.72,0-23.18,4.23-23.18,12.9,0,6.25,4.23,9.47,10.28,9.47,5.24,0,10.89-3.63,12.5-9.07.4-1.61.4-3.43.4-5.24v-8.06Z"/>
  <path class="cls-1" d="M1448.42,1422.31c-6.05,2.62-16.33,4.03-27.42,4.03-32.86,0-53.62-19.15-53.62-50.8,0-28.22,19.35-52.61,58.06-52.61,7.26,0,15.92,1.01,22.98,3.43l-5.24,26.81c-3.43-1.41-8.27-2.62-15.52-2.62-13.71,0-23.18,9.27-23.18,23.79,0,16.13,11.29,23.79,23.99,23.79,6.25,0,11.49-.6,15.92-2.42l4.03,26.61Z"/>
  <path class="cls-1" d="M1500.23,1297.73c0,9.68-7.26,17.34-18.75,17.34s-18.34-7.66-18.34-17.34,7.26-17.13,18.55-17.13,18.34,7.26,18.54,17.13ZM1463.54,1424.32v-99.18h36.29v99.18h-36.29Z"/>
  <path class="cls-1" d="M1623.6,1373.73c0,36.08-25.8,52.82-53.62,52.82-29.63,0-52.61-18.95-52.61-51.2s20.76-52.41,54.63-52.41c31.04,0,51.61,20.96,51.61,50.8ZM1554.86,1374.73c0,14.72,4.84,26.21,16.13,26.21,9.68,0,15.12-10.28,15.12-26.21,0-13.71-4.43-26.21-15.32-26.21-11.89,0-15.92,13.1-15.92,26.21ZM1605.05,1282.01l-24.59,31.45h-24.79l17.34-31.45h32.05Z"/>
  <path class="cls-1" d="M1641.14,1358.81c0-13.1-.4-24.59-.81-33.67h31.25l1.61,12.7h.81c3.63-5.24,13.1-14.92,29.63-14.92,23.18,0,35.68,15.72,35.68,42.94v58.46h-36.29v-54.02c0-11.49-4.03-18.14-12.7-18.14-7.06,0-10.28,4.84-11.89,8.67-.81,1.81-1.01,4.64-1.01,7.26v56.24h-36.29v-65.51Z"/>
  <path class="cls-1" d="M428.51,1629.34c1.21,7.86,12.7,12.3,25.4,12.3,9.47,0,18.34-1.01,27.21-3.83l4.64,24.19c-11.89,4.84-24.79,6.25-37.09,6.25-34.87,0-54.63-19.15-54.63-50.6,0-23.18,14.92-52.81,51.4-52.81,32.05,0,45.76,23.58,45.76,50.8,0,6.05-.81,11.29-1.41,13.71h-61.28ZM457.74,1604.75c0-5.64-2.62-16.13-14.11-16.13-10.68,0-14.92,9.88-15.52,16.13h29.63Z"/>
  <path class="cls-1" d="M585.34,1530.36v135.87h-36.49v-135.87h36.49Z"/>
  <path class="cls-1" d="M609.12,1600.71c0-13.1-.4-24.59-.81-33.67h31.25l1.61,12.7h.81c3.63-5.24,13.1-14.92,29.63-14.92,23.18,0,35.68,15.72,35.68,42.94v58.46h-36.29v-54.02c0-11.49-4.03-18.14-12.7-18.14-7.06,0-10.28,4.84-11.89,8.67-.81,1.81-1.01,4.64-1.01,7.26v56.24h-36.29v-65.51Z"/>
  <path class="cls-1" d="M734.11,1666.23v-72.57h-12.7v-26.61h12.7v-3.43c0-10.89,3.83-24.39,12.9-32.46,8.27-7.66,19.55-10.28,28.83-10.28,6.85,0,12.09.6,16.73,1.81l-.81,27.82c-2.62-.81-5.64-1.21-9.27-1.21-7.86,0-12.3,5.64-12.3,12.9v4.84h18.14v26.61h-17.74v72.57h-36.49Z"/>
  <path class="cls-1" d="M902.63,1615.63c0,36.08-25.8,52.82-53.62,52.82-29.63,0-52.61-18.95-52.61-51.2s20.76-52.41,54.63-52.41c31.04,0,51.61,20.96,51.61,50.8ZM833.89,1616.64c0,14.72,4.84,26.21,16.13,26.21,9.68,0,15.12-10.28,15.12-26.21,0-13.71-4.44-26.21-15.32-26.21-11.89,0-15.93,13.1-15.93,26.21Z"/>
  <path class="cls-1" d="M920.17,1600.51c0-15.72-.4-25.2-.81-33.46h31.04l1.21,17.94h.81c5.24-15.12,17.94-20.16,26.41-20.16,3.23,0,4.64,0,7.26.6v34.07c-2.62-.6-5.44-1.01-9.27-1.01-10.68,0-17.94,4.44-19.75,12.5-.4,1.81-.6,3.83-.6,6.25v48.99h-36.29v-65.72Z"/>
  <path class="cls-1" d="M1000.6,1600.71c0-13.1-.4-24.59-.81-33.67h30.44l1.41,12.3h.81c3.63-4.84,12.3-14.51,29.23-14.51,12.7,0,22.58,5.85,26.81,15.72h.4c4.03-5.04,8.47-9.07,13.71-11.69,5.04-2.62,10.89-4.03,17.54-4.03,21.37,0,33.66,15.52,33.66,42.94v58.46h-35.28v-53.02c0-12.3-3.63-19.35-11.69-19.35-5.85,0-9.47,3.83-11.09,8.47-.81,2.02-1.01,5.24-1.01,7.26v56.65h-35.28v-54.02c0-11.09-3.43-18.34-11.49-18.34-6.65,0-9.68,4.84-11.09,8.26-1.01,2.22-1.01,4.84-1.01,7.26v56.85h-35.28v-65.51Z"/>
  <path class="cls-1" d="M1233.23,1666.23l-2.02-8.67h-.6c-7.06,7.86-16.93,10.89-27.62,10.89-20.16,0-32.66-14.72-32.66-31.25,0-26.61,23.79-38.3,57.45-38.5v-.81c0-4.03-3.02-8.47-16.13-8.47-10.48,0-21.57,3.63-28.02,7.46l-6.45-23.18c6.45-3.22,20.56-8.87,41.12-8.87,34.07,0,45.96,18.95,45.96,43.74v33.46c0,9.88.4,19.15,1.61,24.19h-32.66ZM1254.2,1523.91l-24.59,31.45h-24.79l17.34-31.45h32.05ZM1229,1620.87c-14.72,0-23.18,4.23-23.18,12.9,0,6.25,4.23,9.47,10.28,9.47,5.24,0,10.89-3.63,12.5-9.07.4-1.61.4-3.43.4-5.24v-8.06Z"/>
  <path class="cls-1" d="M1324.55,1538.83v28.22h20.56v26.61h-20.56v28.42c0,11.89,2.82,16.73,11.49,16.73,3.83,0,6.65-.4,8.67-.81v27.62c-4.23,1.41-12.3,2.62-21.57,2.62-10.68,0-19.55-3.63-24.79-8.87-6.05-6.05-9.27-15.93-9.27-31.04v-34.67h-12.3v-26.61h12.3v-20.16l35.48-8.06Z"/>
  <path class="cls-1" d="M1398.73,1539.63c0,9.68-7.26,17.34-18.75,17.34s-18.34-7.66-18.34-17.34,7.26-17.13,18.55-17.13,18.34,7.26,18.54,17.13ZM1362.05,1666.23v-99.18h36.29v99.18h-36.29Z"/>
  <path class="cls-1" d="M1496.91,1664.21c-6.05,2.62-16.33,4.03-27.42,4.03-32.86,0-53.62-19.15-53.62-50.8,0-28.22,19.35-52.61,58.06-52.61,7.26,0,15.92,1.01,22.98,3.43l-5.24,26.81c-3.43-1.41-8.27-2.62-15.52-2.62-13.71,0-23.18,9.27-23.18,23.79,0,16.13,11.29,23.79,23.99,23.79,6.25,0,11.49-.6,15.92-2.42l4.03,26.61Z"/>
  <path class="cls-1" d="M1570.08,1666.23l-2.02-8.67h-.6c-7.06,7.86-16.93,10.89-27.62,10.89-20.16,0-32.66-14.72-32.66-31.25,0-26.61,23.79-38.3,57.45-38.5v-.81c0-4.03-3.02-8.47-16.13-8.47-10.48,0-21.57,3.63-28.02,7.46l-6.45-23.18c6.45-3.22,20.56-8.87,41.12-8.87,34.07,0,45.96,18.95,45.96,43.74v33.46c0,9.88.4,19.15,1.61,24.19h-32.66ZM1565.85,1620.87c-14.72,0-23.18,4.23-23.18,12.9,0,6.25,4.23,9.47,10.28,9.47,5.24,0,10.89-3.63,12.5-9.07.4-1.61.4-3.43.4-5.24v-8.06Z"/>
</svg>