<?xml version="1.0" encoding="UTF-8"?>
<svg id="Capa_1" data-name="Capa 1" xmlns="http://www.w3.org/2000/svg" viewBox="0 0 2000 2000">
  <defs>
    <style>
      .cls-1 {
        fill: #16a650;
        stroke-width: 0px;
      }
    </style>
  </defs>
  <path class="cls-1" d="M727.69,411.61v528.95h-142.05V411.61h142.05Z"/>
  <path class="cls-1" d="M927.8,530.11h-134.98v-118.5h414.37v118.5h-137.34v410.45h-142.05v-410.45Z"/>
  <path class="cls-1" d="M1414.37,411.61v528.95h-142.05V411.61h142.05Z"/>
  <path class="cls-1" d="M440.2,1046.51v135.78h-36.46v-135.78h36.46Z"/>
  <path class="cls-1" d="M463.97,1116.82c0-13.09-.4-24.58-.81-33.64h31.22l1.61,12.69h.81c3.63-5.24,13.09-14.91,29.61-14.91,23.17,0,35.66,15.71,35.66,42.91v58.42h-36.26v-53.99c0-11.48-4.03-18.13-12.69-18.13-7.05,0-10.27,4.83-11.88,8.66-.81,1.81-1.01,4.63-1.01,7.25v56.2h-36.26v-65.47Z"/>
  <path class="cls-1" d="M683.14,1083.18c-.6,6.04-1.01,14.71-1.01,30.62v53.99c0,17.53-3.42,33.84-15.31,44.32-11.48,9.67-26.59,12.29-41.9,12.29-13.7,0-27.6-2.62-36.87-7.45l6.85-27.4c6.04,3.42,17.32,7.25,28.61,7.25,12.89,0,22.96-7.05,22.96-22.36v-4.43h-.4c-6.04,7.66-14.91,11.08-24.78,11.08-24.17,0-41.7-19.34-41.7-48.15,0-31.22,20.15-51.97,44.92-51.97,12.09,0,20.35,4.63,25.58,12.69h.4l1.21-10.47h31.43ZM645.87,1124.07c0-1.41-.2-3.22-.4-4.63-1.61-7.05-6.24-11.28-12.89-11.28-8.66,0-16.12,8.46-16.12,24.17,0,12.89,6.04,22.36,16.12,22.36,6.65,0,11.48-4.43,12.69-9.87.6-2.01.6-5.24.6-7.45v-13.29Z"/>
  <path class="cls-1" d="M734.1,1145.42c1.21,7.86,12.69,12.29,25.38,12.29,9.47,0,18.33-1.01,27.19-3.83l4.63,24.17c-11.89,4.83-24.78,6.25-37.07,6.25-34.85,0-54.59-19.14-54.59-50.56,0-23.17,14.91-52.78,51.37-52.78,32.03,0,45.73,23.57,45.73,50.76,0,6.04-.81,11.28-1.41,13.7h-61.24ZM763.31,1120.85c0-5.64-2.62-16.12-14.1-16.12-10.68,0-14.91,9.87-15.51,16.12h29.61Z"/>
  <path class="cls-1" d="M813.26,1116.82c0-13.09-.4-24.58-.81-33.64h31.22l1.61,12.69h.81c3.63-5.24,13.09-14.91,29.61-14.91,23.17,0,35.66,15.71,35.66,42.91v58.42h-36.26v-53.99c0-11.48-4.03-18.13-12.69-18.13-7.05,0-10.27,4.83-11.89,8.66-.81,1.81-1.01,4.63-1.01,7.25v56.2h-36.26v-65.47Z"/>
  <path class="cls-1" d="M970.59,1055.78c0,9.67-7.25,17.33-18.73,17.33s-18.33-7.66-18.33-17.33,7.25-17.12,18.53-17.12,18.33,7.25,18.53,17.12ZM933.93,1182.29v-99.11h36.26v99.11h-36.26Z"/>
  <path class="cls-1" d="M1022.16,1145.42c1.21,7.86,12.69,12.29,25.38,12.29,9.47,0,18.33-1.01,27.2-3.83l4.63,24.17c-11.89,4.83-24.78,6.25-37.07,6.25-34.85,0-54.59-19.14-54.59-50.56,0-23.17,14.91-52.78,51.37-52.78,32.03,0,45.73,23.57,45.73,50.76,0,6.04-.81,11.28-1.41,13.7h-61.24ZM1051.37,1120.85c0-5.64-2.62-16.12-14.1-16.12-10.68,0-14.91,9.87-15.51,16.12h29.61Z"/>
  <path class="cls-1" d="M1101.32,1116.62c0-15.71-.4-25.18-.81-33.44h31.02l1.21,17.93h.81c5.24-15.11,17.93-20.14,26.39-20.14,3.22,0,4.63,0,7.25.6v34.04c-2.62-.6-5.44-1.01-9.27-1.01-10.68,0-17.93,4.43-19.74,12.49-.4,1.81-.6,3.83-.6,6.25v48.95h-36.26v-65.67Z"/>
  <path class="cls-1" d="M1181.7,1182.29v-99.11h36.26v99.11h-36.26ZM1234.88,1040.07l-24.58,31.43h-24.78l17.32-31.43h32.03Z"/>
  <path class="cls-1" d="M1297.53,1182.29l-2.01-8.66h-.6c-7.05,7.86-16.92,10.88-27.6,10.88-20.14,0-32.63-14.71-32.63-31.22,0-26.59,23.77-38.28,57.41-38.48v-.81c0-4.03-3.02-8.46-16.12-8.46-10.47,0-21.55,3.63-28,7.45l-6.45-23.17c6.45-3.22,20.55-8.86,41.1-8.86,34.04,0,45.93,18.94,45.93,43.71v33.44c0,9.87.4,19.14,1.61,24.17h-32.63ZM1293.3,1136.96c-14.71,0-23.17,4.23-23.17,12.89,0,6.24,4.23,9.47,10.27,9.47,5.24,0,10.88-3.63,12.49-9.07.4-1.61.4-3.42.4-5.24v-8.06Z"/>
  <path class="cls-1" d="M1420.21,1145.42c1.21,7.86,12.69,12.29,25.38,12.29,9.47,0,18.33-1.01,27.2-3.83l4.63,24.17c-11.89,4.83-24.78,6.25-37.07,6.25-34.85,0-54.59-19.14-54.59-50.56,0-23.17,14.91-52.78,51.37-52.78,32.03,0,45.73,23.57,45.73,50.76,0,6.04-.81,11.28-1.41,13.7h-61.24ZM1449.42,1120.85c0-5.64-2.62-16.12-14.1-16.12-10.68,0-14.91,9.87-15.51,16.12h29.61Z"/>
  <path class="cls-1" d="M1499.37,1116.82c0-13.09-.4-24.58-.81-33.64h31.22l1.61,12.69h.81c3.63-5.24,13.09-14.91,29.61-14.91,23.17,0,35.66,15.71,35.66,42.91v58.42h-36.26v-53.99c0-11.48-4.03-18.13-12.69-18.13-7.05,0-10.27,4.83-11.88,8.66-.81,1.81-1.01,4.63-1.01,7.25v56.2h-36.26v-65.47Z"/>
  <path class="cls-1" d="M355.7,1318.66h-34.65v-30.42h106.36v30.42h-35.25v105.36h-36.46v-105.36Z"/>
  <path class="cls-1" d="M455.21,1387.16c1.21,7.86,12.69,12.29,25.38,12.29,9.47,0,18.33-1.01,27.19-3.83l4.63,24.17c-11.89,4.83-24.78,6.25-37.07,6.25-34.85,0-54.59-19.14-54.59-50.56,0-23.17,14.91-52.78,51.37-52.78,32.03,0,45.73,23.57,45.73,50.76,0,6.04-.81,11.28-1.41,13.7h-61.24ZM484.42,1362.58c0-5.64-2.62-16.12-14.1-16.12-10.68,0-14.91,9.87-15.51,16.12h29.61Z"/>
  <path class="cls-1" d="M610.32,1422.01c-6.04,2.62-16.32,4.03-27.4,4.03-32.84,0-53.58-19.14-53.58-50.76,0-28.2,19.34-52.58,58.02-52.58,7.25,0,15.91,1.01,22.96,3.42l-5.24,26.79c-3.42-1.41-8.26-2.62-15.51-2.62-13.7,0-23.17,9.27-23.17,23.77,0,16.12,11.28,23.77,23.97,23.77,6.25,0,11.48-.6,15.91-2.42l4.03,26.59Z"/>
  <path class="cls-1" d="M625.42,1358.55c0-13.09-.4-24.58-.81-33.64h31.22l1.61,12.69h.81c3.63-5.24,13.09-14.91,29.61-14.91,23.17,0,35.66,15.71,35.66,42.91v58.42h-36.26v-53.99c0-11.48-4.03-18.13-12.69-18.13-7.05,0-10.27,4.83-11.88,8.66-.81,1.81-1.01,4.63-1.01,7.25v56.2h-36.26v-65.47Z"/>
  <path class="cls-1" d="M847.21,1373.46c0,36.06-25.79,52.78-53.58,52.78-29.61,0-52.58-18.94-52.58-51.17s20.75-52.38,54.59-52.38c31.02,0,51.57,20.95,51.57,50.76ZM778.52,1374.46c0,14.71,4.83,26.19,16.12,26.19,9.67,0,15.11-10.27,15.11-26.19,0-13.7-4.43-26.19-15.31-26.19-11.89,0-15.92,13.09-15.92,26.19Z"/>
  <path class="cls-1" d="M864.74,1280.99h36.26v143.03h-36.26v-143.03Z"/>
  <path class="cls-1" d="M1024.68,1373.46c0,36.06-25.79,52.78-53.58,52.78-29.61,0-52.58-18.94-52.58-51.17s20.75-52.38,54.59-52.38c31.02,0,51.57,20.95,51.57,50.76ZM955.99,1374.46c0,14.71,4.83,26.19,16.12,26.19,9.67,0,15.11-10.27,15.11-26.19,0-13.7-4.43-26.19-15.31-26.19-11.89,0-15.92,13.09-15.92,26.19Z"/>
  <path class="cls-1" d="M1141.52,1324.91c-.6,6.04-1.01,14.71-1.01,30.62v53.99c0,17.53-3.42,33.84-15.31,44.32-11.48,9.67-26.59,12.29-41.9,12.29-13.7,0-27.6-2.62-36.86-7.45l6.85-27.4c6.04,3.42,17.32,7.25,28.61,7.25,12.89,0,22.96-7.05,22.96-22.36v-4.43h-.4c-6.04,7.66-14.91,11.08-24.78,11.08-24.17,0-41.7-19.34-41.7-48.15,0-31.22,20.14-51.97,44.92-51.97,12.09,0,20.35,4.63,25.58,12.69h.4l1.21-10.47h31.43ZM1104.25,1365.8c0-1.41-.2-3.22-.4-4.63-1.61-7.05-6.25-11.28-12.89-11.28-8.66,0-16.12,8.46-16.12,24.17,0,12.89,6.04,22.36,16.12,22.36,6.65,0,11.48-4.43,12.69-9.87.6-2.01.6-5.24.6-7.45v-13.29Z"/>
  <path class="cls-1" d="M1163.07,1424.02v-99.11h36.26v99.11h-36.26ZM1216.25,1281.8l-24.58,31.43h-24.78l17.32-31.43h32.03Z"/>
  <path class="cls-1" d="M1278.9,1424.02l-2.01-8.66h-.6c-7.05,7.86-16.92,10.88-27.6,10.88-20.14,0-32.63-14.71-32.63-31.22,0-26.59,23.77-38.27,57.41-38.48v-.81c0-4.03-3.02-8.46-16.12-8.46-10.47,0-21.55,3.63-28,7.45l-6.45-23.17c6.45-3.22,20.55-8.86,41.1-8.86,34.04,0,45.93,18.94,45.93,43.71v33.44c0,9.87.4,19.14,1.61,24.17h-32.63ZM1274.67,1378.7c-14.71,0-23.17,4.23-23.17,12.89,0,6.24,4.23,9.47,10.27,9.47,5.24,0,10.88-3.63,12.49-9.07.4-1.61.4-3.42.4-5.24v-8.06Z"/>
  <path class="cls-1" d="M1333.08,1393.6c5.64,3.42,18.53,7.45,27.6,7.45,7.66,0,10.68-1.81,10.68-5.44s-2.22-5.24-12.89-8.66c-21.76-6.85-29.21-18.73-29.01-30.22,0-19.74,16.72-34.04,42.71-34.04,12.29,0,23.17,2.62,29.61,5.64l-5.84,24.58c-4.63-2.22-13.9-5.44-21.96-5.44-6.25,0-9.87,1.61-9.87,5.64,0,3.22,3.22,5.24,14.91,9.07,19.54,6.45,26.99,16.52,27.2,30.82,0,18.94-14.71,33.04-45.33,33.04-13.7,0-25.99-2.82-33.84-6.85l6.04-25.58Z"/>
  <path class="cls-1" d="M1563.33,1280.99v111.6c0,12.29.4,24.78.81,31.43h-32.23l-1.41-13.5h-.4c-6.65,11.28-18.53,15.71-30.01,15.71-22.97,0-42.1-19.94-42.1-51.17-.2-33.24,20.95-52.38,44.32-52.38,10.88,0,19.94,3.22,24.38,9.47h.4v-51.17h36.26ZM1527.07,1367.62c0-1.41,0-3.02-.2-4.63-1.41-6.85-6.85-12.69-14.5-12.69-12.09,0-17.53,10.88-17.53,23.97,0,15.11,7.45,23.17,17.53,23.17,7.25,0,12.89-5.24,14.1-11.89.4-2.01.6-4.43.6-6.65v-11.28Z"/>
  <path class="cls-1" d="M1615.3,1387.16c1.21,7.86,12.69,12.29,25.38,12.29,9.47,0,18.33-1.01,27.2-3.83l4.63,24.17c-11.89,4.83-24.78,6.25-37.07,6.25-34.85,0-54.59-19.14-54.59-50.56,0-23.17,14.91-52.78,51.37-52.78,32.03,0,45.73,23.57,45.73,50.76,0,6.04-.81,11.28-1.41,13.7h-61.24ZM1644.51,1362.58c0-5.64-2.62-16.12-14.1-16.12-10.68,0-14.91,9.87-15.51,16.12h29.61Z"/>
  <path class="cls-1" d="M485.12,1529.98v135.78h-36.46v-135.78h36.46Z"/>
  <path class="cls-1" d="M508.89,1600.28c0-13.09-.4-24.58-.81-33.64h31.22l1.61,12.69h.81c3.63-5.24,13.09-14.91,29.61-14.91,23.17,0,35.66,15.71,35.66,42.91v58.42h-36.26v-53.99c0-11.48-4.03-18.13-12.69-18.13-7.05,0-10.27,4.83-11.89,8.66-.81,1.81-1.01,4.63-1.01,7.25v56.2h-36.26v-65.47Z"/>
  <path class="cls-1" d="M633.78,1665.75v-72.52h-12.69v-26.59h12.69v-3.42c0-10.88,3.83-24.38,12.89-32.43,8.26-7.66,19.54-10.27,28.81-10.27,6.85,0,12.09.6,16.72,1.81l-.81,27.8c-2.62-.81-5.64-1.21-9.27-1.21-7.86,0-12.29,5.64-12.29,12.89v4.83h18.13v26.59h-17.73v72.52h-36.46Z"/>
  <path class="cls-1" d="M802.19,1615.19c0,36.06-25.79,52.78-53.58,52.78-29.61,0-52.58-18.94-52.58-51.17s20.75-52.38,54.59-52.38c31.02,0,51.57,20.95,51.57,50.76ZM733.5,1616.2c0,14.71,4.83,26.19,16.12,26.19,9.67,0,15.11-10.27,15.11-26.19,0-13.7-4.43-26.19-15.31-26.19-11.89,0-15.92,13.09-15.92,26.19Z"/>
  <path class="cls-1" d="M819.71,1600.08c0-15.71-.4-25.18-.81-33.44h31.02l1.21,17.93h.81c5.24-15.11,17.93-20.14,26.39-20.14,3.22,0,4.63,0,7.25.6v34.04c-2.62-.6-5.44-1.01-9.27-1.01-10.68,0-17.93,4.43-19.74,12.49-.4,1.81-.6,3.83-.6,6.25v48.95h-36.26v-65.67Z"/>
  <path class="cls-1" d="M900.09,1600.28c0-13.09-.4-24.58-.81-33.64h30.42l1.41,12.29h.81c3.63-4.83,12.29-14.5,29.21-14.5,12.69,0,22.56,5.84,26.79,15.71h.4c4.03-5.04,8.46-9.06,13.7-11.68,5.04-2.62,10.88-4.03,17.53-4.03,21.35,0,33.64,15.51,33.64,42.91v58.42h-35.25v-52.98c0-12.29-3.63-19.34-11.68-19.34-5.84,0-9.47,3.83-11.08,8.46-.81,2.01-1.01,5.24-1.01,7.25v56.61h-35.25v-53.99c0-11.08-3.42-18.33-11.48-18.33-6.65,0-9.67,4.83-11.08,8.26-1.01,2.22-1.01,4.83-1.01,7.25v56.81h-35.25v-65.47Z"/>
  <path class="cls-1" d="M1132.55,1665.75l-2.01-8.66h-.6c-7.05,7.86-16.92,10.88-27.6,10.88-20.14,0-32.63-14.71-32.63-31.22,0-26.59,23.77-38.27,57.41-38.48v-.81c0-4.03-3.02-8.46-16.12-8.46-10.47,0-21.55,3.63-28,7.45l-6.45-23.17c6.45-3.22,20.55-8.86,41.1-8.86,34.04,0,45.93,18.94,45.93,43.71v33.44c0,9.87.4,19.14,1.61,24.17h-32.63ZM1128.32,1620.43c-14.71,0-23.17,4.23-23.17,12.89,0,6.24,4.23,9.47,10.27,9.47,5.24,0,10.88-3.63,12.49-9.07.4-1.61.4-3.42.4-5.24v-8.06Z"/>
  <path class="cls-1" d="M1261.88,1663.74c-6.04,2.62-16.32,4.03-27.4,4.03-32.84,0-53.58-19.14-53.58-50.76,0-28.2,19.34-52.58,58.02-52.58,7.25,0,15.91,1.01,22.96,3.42l-5.24,26.79c-3.42-1.41-8.26-2.62-15.51-2.62-13.7,0-23.17,9.27-23.17,23.77,0,16.12,11.28,23.77,23.97,23.77,6.25,0,11.48-.6,15.91-2.42l4.03,26.59Z"/>
  <path class="cls-1" d="M1313.65,1539.24c0,9.67-7.25,17.33-18.73,17.33s-18.33-7.66-18.33-17.33,7.25-17.12,18.53-17.12,18.33,7.25,18.53,17.12ZM1276.98,1665.75v-99.11h36.26v99.11h-36.26Z"/>
  <path class="cls-1" d="M1436.93,1615.19c0,36.06-25.79,52.78-53.58,52.78-29.61,0-52.58-18.94-52.58-51.17s20.75-52.38,54.59-52.38c31.02,0,51.57,20.95,51.57,50.76ZM1368.23,1616.2c0,14.71,4.83,26.19,16.12,26.19,9.67,0,15.11-10.27,15.11-26.19,0-13.7-4.43-26.19-15.31-26.19-11.88,0-15.91,13.09-15.91,26.19ZM1418.39,1523.53l-24.58,31.43h-24.78l17.32-31.43h32.03Z"/>
  <path class="cls-1" d="M1454.45,1600.28c0-13.09-.4-24.58-.81-33.64h31.22l1.61,12.69h.81c3.63-5.24,13.09-14.91,29.61-14.91,23.17,0,35.66,15.71,35.66,42.91v58.42h-36.26v-53.99c0-11.48-4.03-18.13-12.69-18.13-7.05,0-10.27,4.83-11.88,8.66-.81,1.81-1.01,4.63-1.01,7.25v56.2h-36.26v-65.47Z"/>
</svg>