<?xml version="1.0" encoding="UTF-8"?>
<svg id="Capa_1" data-name="Capa 1" xmlns="http://www.w3.org/2000/svg" viewBox="0 0 2000 2000">
  <defs>
    <style>
      .cls-1 {
        fill: #f3942a;
        stroke-width: 0px;
      }
    </style>
  </defs>
  <path class="cls-1" d="M714.92,532.12v529.35h-142.15v-529.35h142.15Z"/>
  <path class="cls-1" d="M1208.92,1048.12c-20.42,9.42-69.9,21.21-133.51,21.21-197.92,0-285.1-123.3-285.1-263.89,0-186.92,136.66-281.95,294.52-281.95,61.26,0,110.74,11.78,132.73,23.56l-27.49,111.52c-23.56-9.42-55.76-18.85-98.17-18.85-81.68,0-152.36,47.91-152.36,156.29,0,96.6,57.33,156.29,154.72,156.29,34.56,0,73.04-7.07,95.03-15.71l19.63,111.52Z"/>
  <path class="cls-1" d="M1427.25,532.12v529.35h-142.15v-529.35h142.15Z"/>
  <path class="cls-1" d="M350.37,1167.51v135.88h-36.49v-135.88h36.49Z"/>
  <path class="cls-1" d="M374.15,1237.86c0-13.1-.4-24.6-.81-33.67h31.25l1.61,12.7h.81c3.63-5.24,13.1-14.92,29.63-14.92,23.18,0,35.68,15.72,35.68,42.94v58.46h-36.29v-54.03c0-11.49-4.03-18.14-12.7-18.14-7.06,0-10.28,4.84-11.89,8.67-.81,1.81-1.01,4.64-1.01,7.26v56.25h-36.29v-65.52Z"/>
  <path class="cls-1" d="M593.49,1204.2c-.6,6.05-1.01,14.72-1.01,30.64v54.03c0,17.54-3.43,33.87-15.32,44.35-11.49,9.68-26.61,12.3-41.93,12.3-13.71,0-27.62-2.62-36.89-7.46l6.85-27.42c6.05,3.43,17.34,7.26,28.63,7.26,12.9,0,22.98-7.06,22.98-22.38v-4.44h-.4c-6.05,7.66-14.92,11.09-24.8,11.09-24.19,0-41.73-19.35-41.73-48.18,0-31.25,20.16-52.01,44.96-52.01,12.1,0,20.36,4.64,25.6,12.7h.4l1.21-10.48h31.45ZM556.2,1245.12c0-1.41-.2-3.23-.4-4.64-1.61-7.06-6.25-11.29-12.9-11.29-8.67,0-16.13,8.47-16.13,24.19,0,12.9,6.05,22.38,16.13,22.38,6.65,0,11.49-4.44,12.7-9.88.6-2.02.6-5.24.6-7.46v-13.3Z"/>
  <path class="cls-1" d="M644.49,1266.49c1.21,7.86,12.7,12.3,25.4,12.3,9.48,0,18.35-1.01,27.22-3.83l4.64,24.19c-11.89,4.84-24.8,6.25-37.09,6.25-34.88,0-54.63-19.15-54.63-50.6,0-23.18,14.92-52.82,51.41-52.82,32.05,0,45.76,23.59,45.76,50.8,0,6.05-.81,11.29-1.41,13.71h-61.29ZM673.73,1241.9c0-5.65-2.62-16.13-14.11-16.13-10.68,0-14.92,9.88-15.52,16.13h29.64Z"/>
  <path class="cls-1" d="M723.72,1237.86c0-13.1-.4-24.6-.81-33.67h31.25l1.61,12.7h.81c3.63-5.24,13.1-14.92,29.63-14.92,23.18,0,35.68,15.72,35.68,42.94v58.46h-36.29v-54.03c0-11.49-4.03-18.14-12.7-18.14-7.06,0-10.28,4.84-11.89,8.67-.81,1.81-1.01,4.64-1.01,7.26v56.25h-36.29v-65.52Z"/>
  <path class="cls-1" d="M881.16,1176.78c0,9.68-7.26,17.34-18.75,17.34s-18.35-7.66-18.35-17.34,7.26-17.14,18.55-17.14,18.35,7.26,18.55,17.14ZM844.47,1303.38v-99.19h36.29v99.19h-36.29Z"/>
  <path class="cls-1" d="M932.77,1266.49c1.21,7.86,12.7,12.3,25.4,12.3,9.48,0,18.35-1.01,27.22-3.83l4.64,24.19c-11.89,4.84-24.8,6.25-37.09,6.25-34.88,0-54.63-19.15-54.63-50.6,0-23.18,14.92-52.82,51.41-52.82,32.05,0,45.76,23.59,45.76,50.8,0,6.05-.81,11.29-1.41,13.71h-61.29ZM962,1241.9c0-5.65-2.62-16.13-14.11-16.13-10.68,0-14.92,9.88-15.52,16.13h29.64Z"/>
  <path class="cls-1" d="M1012,1237.66c0-15.72-.4-25.2-.81-33.46h31.05l1.21,17.94h.81c5.24-15.12,17.94-20.16,26.41-20.16,3.23,0,4.64,0,7.26.6v34.07c-2.62-.6-5.44-1.01-9.27-1.01-10.68,0-17.94,4.44-19.76,12.5-.4,1.81-.6,3.83-.6,6.25v48.99h-36.29v-65.72Z"/>
  <path class="cls-1" d="M1092.43,1303.38v-99.19h36.29v99.19h-36.29ZM1145.65,1161.05l-24.59,31.45h-24.8l17.34-31.45h32.05Z"/>
  <path class="cls-1" d="M1208.35,1303.38l-2.02-8.67h-.6c-7.06,7.86-16.93,10.89-27.62,10.89-20.16,0-32.66-14.72-32.66-31.25,0-26.61,23.79-38.3,57.46-38.51v-.81c0-4.03-3.02-8.47-16.13-8.47-10.48,0-21.57,3.63-28.02,7.46l-6.45-23.18c6.45-3.23,20.56-8.87,41.13-8.87,34.07,0,45.96,18.95,45.96,43.75v33.46c0,9.88.4,19.15,1.61,24.19h-32.66ZM1204.12,1258.02c-14.72,0-23.18,4.23-23.18,12.9,0,6.25,4.23,9.47,10.28,9.47,5.24,0,10.89-3.63,12.5-9.07.4-1.61.4-3.43.4-5.24v-8.06Z"/>
  <path class="cls-1" d="M1404.7,1299.96c-5.24,2.42-17.94,5.44-34.27,5.44-50.8,0-73.18-31.65-73.18-67.74,0-47.98,35.08-72.37,75.6-72.37,15.72,0,28.43,3.02,34.07,6.05l-7.06,28.63c-6.05-2.42-14.31-4.84-25.2-4.84-20.97,0-39.11,12.3-39.11,40.12,0,24.8,14.72,40.12,39.71,40.12,8.87,0,18.75-1.81,24.39-4.03l5.04,28.63Z"/>
  <path class="cls-1" d="M1458.93,1176.78c0,9.68-7.26,17.34-18.75,17.34s-18.34-7.66-18.34-17.34,7.26-17.14,18.55-17.14,18.35,7.26,18.55,17.14ZM1422.24,1303.38v-99.19h36.29v99.19h-36.29Z"/>
  <path class="cls-1" d="M1510.94,1204.2l10.68,42.13c2.02,7.86,3.43,15.52,4.64,23.39h.61c1.21-8.06,2.42-15.12,4.43-23.39l9.88-42.13h38.1l-36.09,99.19h-36.49l-35.28-99.19h39.51Z"/>
  <path class="cls-1" d="M1628.87,1176.78c0,9.68-7.26,17.34-18.75,17.34s-18.34-7.66-18.34-17.34,7.26-17.14,18.55-17.14,18.35,7.26,18.55,17.14ZM1592.18,1303.38v-99.19h36.29v99.19h-36.29Z"/>
  <path class="cls-1" d="M1651.04,1160.25h36.29v143.14h-36.29v-143.14Z"/>
  <path class="cls-1" d="M597.72,1409.42v135.88h-36.49v-135.88h36.49Z"/>
  <path class="cls-1" d="M621.51,1479.78c0-13.1-.4-24.6-.81-33.67h31.25l1.61,12.7h.81c3.63-5.24,13.1-14.92,29.63-14.92,23.18,0,35.68,15.72,35.68,42.94v58.46h-36.29v-54.03c0-11.49-4.03-18.14-12.7-18.14-7.06,0-10.28,4.84-11.89,8.67-.81,1.81-1.01,4.64-1.01,7.26v56.25h-36.29v-65.52Z"/>
  <path class="cls-1" d="M842.66,1402.16v111.69c0,12.3.4,24.8.81,31.45h-32.26l-1.41-13.51h-.4c-6.65,11.29-18.55,15.72-30.04,15.72-22.98,0-42.13-19.96-42.13-51.21-.2-33.26,20.97-52.42,44.35-52.42,10.89,0,19.96,3.23,24.39,9.48h.4v-51.21h36.29ZM806.37,1488.85c0-1.41,0-3.02-.2-4.64-1.41-6.85-6.85-12.7-14.52-12.7-12.1,0-17.54,10.89-17.54,23.99,0,15.12,7.46,23.18,17.54,23.18,7.26,0,12.9-5.24,14.11-11.89.4-2.02.6-4.43.6-6.65v-11.29Z"/>
  <path class="cls-1" d="M963.01,1511.43c0,14.11.4,25.4.81,33.87h-31.25l-1.61-13.1h-.81c-3.63,5.44-12.3,15.32-30.04,15.32-22.18,0-35.08-14.31-35.08-42.94v-58.46h36.29v52.62c0,12.7,4.23,19.55,12.7,19.55,6.85,0,10.28-4.64,11.69-8.47.81-1.41,1.01-3.23,1.01-5.24v-58.46h36.29v65.32Z"/>
  <path class="cls-1" d="M986.59,1514.86c5.65,3.43,18.55,7.46,27.62,7.46,7.66,0,10.68-1.81,10.68-5.44s-2.22-5.24-12.9-8.67c-21.77-6.85-29.23-18.75-29.03-30.24,0-19.76,16.73-34.07,42.74-34.07,12.3,0,23.18,2.62,29.63,5.64l-5.85,24.6c-4.64-2.22-13.91-5.44-21.97-5.44-6.25,0-9.88,1.61-9.88,5.64,0,3.23,3.23,5.24,14.92,9.07,19.55,6.45,27.01,16.53,27.22,30.84,0,18.95-14.72,33.06-45.36,33.06-13.71,0-26.01-2.82-33.87-6.85l6.05-25.6Z"/>
  <path class="cls-1" d="M1116.42,1417.89v28.22h20.56v26.61h-20.56v28.42c0,11.89,2.82,16.73,11.49,16.73,3.83,0,6.65-.4,8.67-.81v27.62c-4.23,1.41-12.3,2.62-21.57,2.62-10.69,0-19.56-3.63-24.8-8.87-6.05-6.05-9.27-15.93-9.27-31.05v-34.67h-12.3v-26.61h12.3v-20.16l35.48-8.06Z"/>
  <path class="cls-1" d="M1153.92,1479.58c0-15.72-.4-25.2-.81-33.46h31.05l1.21,17.94h.81c5.24-15.12,17.94-20.16,26.41-20.16,3.23,0,4.64,0,7.26.6v34.07c-2.62-.6-5.44-1.01-9.27-1.01-10.68,0-17.94,4.44-19.76,12.5-.4,1.81-.61,3.83-.61,6.25v48.99h-36.29v-65.72Z"/>
  <path class="cls-1" d="M1271.04,1418.7c0,9.68-7.26,17.34-18.75,17.34s-18.34-7.66-18.34-17.34,7.26-17.14,18.55-17.14,18.35,7.26,18.55,17.14ZM1234.35,1545.3v-99.19h36.29v99.19h-36.29Z"/>
  <path class="cls-1" d="M1350.27,1545.3l-2.02-8.67h-.6c-7.06,7.86-16.93,10.89-27.62,10.89-20.16,0-32.66-14.72-32.66-31.25,0-26.61,23.79-38.3,57.46-38.51v-.81c0-4.03-3.02-8.47-16.13-8.47-10.48,0-21.57,3.63-28.02,7.46l-6.45-23.18c6.45-3.23,20.56-8.87,41.13-8.87,34.07,0,45.96,18.95,45.96,43.75v33.46c0,9.88.4,19.15,1.61,24.19h-32.66ZM1346.04,1499.94c-14.72,0-23.18,4.23-23.18,12.9,0,6.25,4.23,9.47,10.28,9.47,5.24,0,10.89-3.63,12.5-9.07.4-1.61.4-3.43.4-5.24v-8.06Z"/>
  <path class="cls-1" d="M1403.69,1402.16h36.29v143.14h-36.29v-143.14Z"/>
</svg>